<svg xmlns="http://www.w3.org/2000/svg" viewBox="0 0 64 64">
  <defs>
    <linearGradient id="g" x1="0" y1="0" x2="1" y2="1">
      <stop offset="0" stop-color="#7c5cff" />
      <stop offset="1" stop-color="#2dd4bf" />
    </linearGradient>
  </defs>
  <rect width="64" height="64" rx="16" fill="#0b0f19" />
  <rect x="6" y="6" width="52" height="52" rx="14" fill="url(#g)" opacity="0.92" />
  <g transform="translate(32 32) rotate(-28) translate(-32 -32)">
    <rect x="30" y="18" width="6" height="32" rx="3" fill="#5b3a1e" />
    <rect x="30.7" y="18" width="4.6" height="32" rx="2.3" fill="#7a4b24" opacity="0.7" />
    <rect x="28.5" y="16" width="9" height="7" rx="3.5" fill="#2a1a12" opacity="0.25" />
    <path d="M28 16h11c2 0 3 1 3 3v6c0 2-1 3-3 3H28c-2 0-3-1-3-3v-6c0-2 1-3 3-3z" fill="#e6edf7" />
    <path d="M40 16h2c2 0 3 1 3 3v6c0 2-1 3-3 3h-2z" fill="#cfd8e6" />
    <circle cx="39.5" cy="21.5" r="1.4" fill="#8f9bb0" />
    <path d="M25 18c-5 1-7 4-7 7 0 3 2 6 7 7v-4c-2-1-3-2-3-3 0-1 1-2 3-3z" fill="#e6edf7" />
    <path d="M25 22c-2 1-3 2-3 3 0 1 1 2 3 3z" fill="#cfd8e6" opacity="0.9" />
  </g>
</svg>
